<svg xmlns="http://www.w3.org/2000/svg" viewBox="0 0 512 512" role="img" aria-labelledby="title desc">
  <title id="title">JAMARQ Digital app icon</title>
  <desc id="desc">A black app icon with a cyan J and Q system monogram.</desc>
  <defs>
    <linearGradient id="bg" x1="0" y1="0" x2="512" y2="512" gradientUnits="userSpaceOnUse">
      <stop offset="0" stop-color="#11151a"/>
      <stop offset="1" stop-color="#030507"/>
    </linearGradient>
    <linearGradient id="mark" x1="120" y1="96" x2="416" y2="416" gradientUnits="userSpaceOnUse">
      <stop offset="0" stop-color="#75f7ff"/>
      <stop offset="0.46" stop-color="#10cef3"/>
      <stop offset="1" stop-color="#087aa8"/>
    </linearGradient>
  </defs>
  <rect width="512" height="512" rx="104" fill="url(#bg)"/>
  <g fill="none" stroke-linecap="square">
    <path d="M96 112H416M96 208H416M96 304H416M96 400H416M112 96V416M208 96V416M304 96V416M400 96V416" stroke="#09a6d6" stroke-opacity="0.12" stroke-width="4"/>
    <path d="M158 118H318" stroke="#9df8ff" stroke-opacity="0.48" stroke-width="8"/>
    <path d="M188 118V290C188 350 148 384 90 384" stroke="url(#mark)" stroke-width="42"/>
    <path d="M300 154C372 154 424 208 424 282C424 356 370 410 296 410C222 410 168 356 168 282" stroke="url(#mark)" stroke-width="42"/>
    <path d="M334 354L420 440" stroke="url(#mark)" stroke-width="42"/>
  </g>
</svg>
