<svg xmlns="http://www.w3.org/2000/svg" viewBox="0 0 1600 900" preserveAspectRatio="xMidYMid slice" role="img" aria-labelledby="title desc">
  <title id="title">JAMARQ Digital system field</title>
  <desc id="desc">A dark cyan infrastructure grid pattern with clean circuit paths.</desc>
  <defs>
    <linearGradient id="fade" x1="0" y1="0" x2="1600" y2="900" gradientUnits="userSpaceOnUse">
      <stop offset="0" stop-color="#020406"/>
      <stop offset="0.58" stop-color="#06090d"/>
      <stop offset="1" stop-color="#031018"/>
    </linearGradient>
    <pattern id="small-grid" width="80" height="80" patternUnits="userSpaceOnUse">
      <path d="M80 0H0V80" fill="none" stroke="#09a6d6" stroke-opacity="0.12" stroke-width="1"/>
      <circle cx="0" cy="0" r="2" fill="#09a6d6" fill-opacity="0.28"/>
    </pattern>
    <linearGradient id="line" x1="220" y1="170" x2="1360" y2="720" gradientUnits="userSpaceOnUse">
      <stop offset="0" stop-color="#66f3ff"/>
      <stop offset="1" stop-color="#09a6d6"/>
    </linearGradient>
  </defs>
  <rect width="1600" height="900" fill="url(#fade)"/>
  <rect width="1600" height="900" fill="url(#small-grid)" opacity="0.55"/>
  <g fill="none" stroke="url(#line)" stroke-linecap="square" stroke-linejoin="miter">
    <path d="M128 680H380L492 568H690L782 476H1110L1242 344H1470" stroke-opacity="0.42" stroke-width="3"/>
    <path d="M98 268H310L420 378H640L752 266H1010L1114 162H1400" stroke-opacity="0.32" stroke-width="2"/>
    <path d="M250 760V648M492 568V440M782 476V330M1110 476V612M1242 344V216" stroke-opacity="0.28" stroke-width="2"/>
  </g>
  <g fill="#09a6d6">
    <circle cx="380" cy="680" r="8" opacity="0.5"/>
    <circle cx="690" cy="568" r="8" opacity="0.4"/>
    <circle cx="1110" cy="476" r="8" opacity="0.42"/>
    <circle cx="1242" cy="344" r="8" opacity="0.56"/>
    <circle cx="420" cy="378" r="6" opacity="0.36"/>
  </g>
  <path d="M0 820H1600" stroke="#09a6d6" stroke-opacity="0.2" stroke-width="2"/>
</svg>
