<svg xmlns="http://www.w3.org/2000/svg"
     width="1024"
     height="1024"
     viewBox="0 0 1024 1024">
  <path d="M1023,-1 C1023,-1 1023,1023 1023,1023 C1023,1023 -1,1023 -1,1023 C-1,1023 -1,-1 -1,-1 C-1,-1 1023,-1 1023,-1 Z M211.5,88 C148.035,91.8007 98.5141,126.695 88,191.5 C88,191.5 87,825.5 87,825.5 C89.566,884.233 138.415,929.71 195.5,935 C195.5,935 835.5,935 835.5,935 C888.104,931.474 927.281,888.686 936,838.5 C928.686,633.602 947.829,420.551 937,216.5 C933.168,144.284 898.798,95.1553 823.5,88 C622.609,96.9674 411.193,76.0409 211.5,88 Z" fill="rgb(243,249,241)"/>
  <path d="M211.5,88 C411.193,76.0409 622.609,96.9674 823.5,88 C898.798,95.1553 933.168,144.284 937,216.5 C947.829,420.551 928.686,633.602 936,838.5 C927.281,888.686 888.104,931.474 835.5,935 C835.5,935 195.5,935 195.5,935 C138.415,929.71 89.566,884.233 87,825.5 C87,825.5 88,191.5 88,191.5 C98.5141,126.695 148.035,91.8007 211.5,88 Z M489.5,219 C270.921,235.414 172.812,527.779 349.5,665 C414.879,715.776 530.682,736.03 607.5,702 C608.845,701.404 612.114,700.838 610.5,699 C610.5,699 535.5,627 535.5,627 C365.458,663.285 276.159,451.509 406.5,344 C547.646,227.579 735.195,397.195 657,552.5 C657,552.5 719.5,614 719.5,614 C754.761,568.897 766.378,505.419 761,448.5 C748.327,314.379 624.165,208.888 489.5,219 Z M591.5,532 C591.5,532 526,584.5 526,584.5 C526,584.5 669.5,729 669.5,729 C669.5,729 791,728.5 791,728.5 C791,728.5 591.5,532 591.5,532 Z M153,759 C153,759 149,760.5 149,760.5 C148.23,762.454 148.215,800.552 149,802.5 C149.562,803.896 151.693,803.836 152.5,805 C152.5,805 874.5,805 874.5,805 C876.411,804.077 877.515,802.409 878,800.5 C878.836,797.209 878.398,759.842 876.5,759 C821.669,758.92 766.818,759.108 712,759 C712,759 153,759 153,759 Z" fill="rgb(5,3,4)"/>
  <path d="M489.5,219 C624.165,208.888 748.327,314.379 761,448.5 C766.378,505.419 754.761,568.897 719.5,614 C719.5,614 657,552.5 657,552.5 C735.195,397.195 547.646,227.579 406.5,344 C276.159,451.509 365.458,663.285 535.5,627 C535.5,627 610.5,699 610.5,699 C612.114,700.838 608.845,701.404 607.5,702 C530.682,736.03 414.879,715.776 349.5,665 C172.812,527.779 270.921,235.414 489.5,219 Z" fill="rgb(246,250,243)"/>
  <path d="M591.5,532 C591.5,532 791,728.5 791,728.5 C791,728.5 669.5,729 669.5,729 C669.5,729 526,584.5 526,584.5 C526,584.5 591.5,532 591.5,532 Z" fill="rgb(251,253,248)"/>
  <path d="M712,759 C525.686,758.634 339.315,759.274 153,759 C153,759 712,759 712,759 Z" fill="rgb(34,35,41)"/>
  <path d="M153,759 C339.315,759.274 525.686,758.634 712,759 C766.818,759.108 821.669,758.92 876.5,759 C878.398,759.842 878.836,797.209 878,800.5 C877.515,802.409 876.411,804.077 874.5,805 C874.5,805 152.5,805 152.5,805 C151.693,803.836 149.562,803.896 149,802.5 C148.215,800.552 148.23,762.454 149,760.5 C149,760.5 153,759 153,759 Z" fill="rgb(6,250,254)"/>
</svg>